<svg width="151" height="32" viewBox="0 0 151 32" fill="none" xmlns="http://www.w3.org/2000/svg">
<g clip-path="url(#clip0_12819_5940)">
<path fill-rule="evenodd" clip-rule="evenodd" d="M18.5002 25.2507C19.472 25.2507 20.4343 25.0593 21.332 24.6874C22.2299 24.3155 23.0456 23.7705 23.7328 23.0833C24.42 22.3962 24.965 21.5804 25.3369 20.6826C25.7088 19.7848 25.9002 18.8225 25.9002 17.8507C25.9002 14.9069 24.7307 12.0835 22.6491 10.0018C20.5675 7.92019 17.7441 6.75073 14.8002 6.75073C11.8563 6.75073 9.03293 7.92019 6.95131 10.0018C4.86965 12.0835 3.7002 14.9069 3.7002 17.8507C3.7002 18.8225 3.8916 19.7848 4.26348 20.6826C4.63537 21.5804 5.18045 22.3962 5.8676 23.0833C6.55476 23.7705 7.37053 24.3155 8.26836 24.6874C9.16613 25.0593 10.1284 25.2507 11.1002 25.2507H18.5002ZM14.8002 9.71073C12.6413 9.71073 10.5709 10.5683 9.04433 12.0949C7.51778 13.6214 6.6602 15.6919 6.6602 17.8507C6.6602 18.4338 6.77504 19.0111 6.99817 19.5498C7.2213 20.0886 7.54834 20.578 7.96067 20.9903C8.37293 21.4026 8.86236 21.7296 9.40108 21.9528C9.9398 22.1759 10.5171 22.2907 11.1002 22.2907H18.5002C19.0832 22.2907 19.6606 22.1759 20.1993 21.9528C20.738 21.7296 21.2275 21.4026 21.6397 20.9903C22.052 20.578 22.3791 20.0886 22.6022 19.5498C22.8253 19.0111 22.9402 18.4338 22.9402 17.8507C22.9402 15.6919 22.0826 13.6214 20.5561 12.0949C19.0295 10.5683 16.9591 9.71073 14.8002 9.71073Z" fill="#9FA1A0"/>
<path fill-rule="evenodd" clip-rule="evenodd" d="M9.62 28.95C8.35667 28.95 7.10576 28.6629 5.93859 28.1051C4.77146 27.5473 3.71095 26.7297 2.81763 25.6989C1.92435 24.6682 1.21574 23.4446 0.732279 22.0979C0.24883 20.7511 0 19.3077 0 17.85C0 13.9249 1.55928 10.1604 4.33482 7.38487C7.11036 4.60933 10.8748 3.05005 14.8 3.05005C18.7252 3.05005 22.4896 4.60933 25.2652 7.38487C28.0407 10.1604 29.6 13.9249 29.6 17.85C29.6 19.3077 29.3511 20.7511 28.8677 22.0979C28.3843 23.4446 27.6756 24.6682 26.7824 25.6989C25.889 26.7297 24.8286 27.5473 23.6614 28.1051C22.4942 28.6629 21.2433 28.95 19.98 28.95H9.62ZM6.42785 9.4779C8.64831 7.25747 11.6598 6.01005 14.8 6.01005C17.9402 6.01005 20.9517 7.25747 23.1721 9.4779C25.3926 11.6984 26.64 14.7099 26.64 17.85C26.64 18.9733 26.4479 20.078 26.0818 21.0978C25.7157 22.1175 25.1878 23.0192 24.5455 23.7604C23.9039 24.5007 23.1653 25.0615 22.385 25.4345C21.6066 25.8065 20.7908 25.99 19.98 25.99H9.62C8.80918 25.99 7.99341 25.8065 7.21499 25.4345C6.43466 25.0615 5.69608 24.5007 5.05447 23.7604C4.41219 23.0192 3.88428 22.1175 3.5182 21.0978C3.15211 20.078 2.96 18.9733 2.96 17.85C2.96 14.7099 4.20743 11.6984 6.42785 9.4779Z" fill="#9FA1A0"/>
<path d="M18.5004 21.5498H14.7971C14.5485 21.5496 14.3017 21.5243 14.0604 21.4751C13.5927 21.3796 13.1455 21.194 12.7448 20.9262C12.1363 20.5197 11.6621 19.9419 11.382 19.2657C11.2912 19.0465 11.2221 18.8201 11.1751 18.5898C11.0772 18.1099 11.075 17.613 11.1715 17.128C11.3143 16.4102 11.6666 15.751 12.1841 15.2336C12.7015 14.7161 13.3608 14.3637 14.0785 14.2209C14.101 14.2164 14.1234 14.2122 14.1459 14.2081C14.3628 14.1692 14.5819 14.1498 14.8004 14.1498C15.284 14.1498 15.7652 14.2446 16.2163 14.4315C16.8924 14.7115 17.4702 15.1858 17.8768 15.7942C18.2834 16.4027 18.5004 17.118 18.5004 17.8498H15.5404C15.5404 17.7035 15.497 17.5604 15.4157 17.4387C15.3344 17.317 15.2188 17.2222 15.0836 17.1661C14.9484 17.1101 14.7996 17.0955 14.656 17.124C14.5125 17.1526 14.3806 17.223 14.2771 17.3266C14.1736 17.43 14.1032 17.5619 14.0746 17.7055C14.046 17.849 14.0607 17.9978 14.1167 18.133C14.1727 18.2682 14.2676 18.3838 14.3892 18.4651C14.511 18.5465 14.654 18.5898 14.8004 18.5898H18.5004C18.5976 18.5898 18.6938 18.5707 18.7836 18.5335C18.8734 18.4963 18.9549 18.4418 19.0236 18.3731C19.0924 18.3043 19.1469 18.2228 19.1841 18.133C19.2212 18.0433 19.2404 17.947 19.2404 17.8498C19.2404 16.6723 18.7726 15.543 17.9399 14.7103C17.1073 13.8776 15.978 13.4098 14.8004 13.4098C14.6727 13.4098 14.5455 13.4153 14.4193 13.4262C14.109 13.4529 13.804 13.5121 13.5091 13.6018C13.2189 13.6899 12.9386 13.8077 12.6724 13.953C12.3675 14.1195 12.0813 14.3222 11.8204 14.5585C11.7661 14.6076 11.7129 14.6582 11.6609 14.7103C11.2966 15.0745 11.0021 15.4957 10.7861 15.9527C10.6781 16.1812 10.5897 16.4187 10.5221 16.6626C10.4447 16.9414 10.3944 17.2285 10.3727 17.5201C10.3645 17.6295 10.3604 17.7394 10.3604 17.8498C10.3604 18.4301 10.4741 19.0076 10.6983 19.5489C11.0345 20.3603 11.6035 21.0537 12.3337 21.5415C12.3378 21.5444 12.342 21.5471 12.3461 21.5498H11.1004C10.6145 21.5498 10.1334 21.4541 9.68447 21.2682C9.23559 21.0822 8.8277 20.8097 8.48412 20.4661C8.14054 20.1225 7.868 19.7146 7.68203 19.2657C7.49607 18.8169 7.40039 18.3357 7.40039 17.8498C7.40039 15.8872 8.18005 14.005 9.56778 12.6172C10.9556 11.2295 12.8378 10.4498 14.8004 10.4498C16.763 10.4498 18.6452 11.2295 20.033 12.6172C21.4207 14.005 22.2004 15.8872 22.2004 17.8498C22.2004 18.3357 22.1047 18.8169 21.9187 19.2657C21.7328 19.7146 21.4602 20.1225 21.1167 20.4661C20.7731 20.8097 20.3652 21.0822 19.9163 21.2682C19.4674 21.4541 18.9863 21.5498 18.5004 21.5498Z" fill="#9FA1A0"/>
</g>
<path d="M39.4059 26V6.21094H46.9363C49.0525 6.21094 50.7303 6.76432 51.9699 7.87109C53.2095 8.97786 53.8293 10.4786 53.8293 12.3734C53.8293 13.7547 53.4751 14.9323 52.7668 15.9062C52.0585 16.8714 51.0889 17.5753 49.8582 18.018L54.1348 26H50.8145L46.8699 18.5094C46.8257 18.5094 46.7814 18.5094 46.7371 18.5094H42.3543V26H39.4059ZM42.3543 15.9992H46.8168C48.0918 15.9992 49.0923 15.676 49.8184 15.0297C50.5533 14.3745 50.9207 13.4891 50.9207 12.3734C50.9207 11.2578 50.5533 10.3768 49.8184 9.73047C49.0835 9.08411 48.0785 8.76094 46.8035 8.76094H42.3543V15.9992ZM60.5363 26.2258C59.1374 26.2258 57.9775 25.8716 57.0566 25.1633C56.1358 24.4461 55.6754 23.388 55.6754 21.9891C55.6754 20.9266 55.9366 20.112 56.459 19.5453C56.9902 18.9698 57.6764 18.5581 58.5176 18.3102C59.3676 18.0622 60.2663 17.8807 61.2137 17.7656C62.0902 17.6594 62.7853 17.5708 63.2988 17.5C63.8124 17.4292 64.1754 17.3229 64.3879 17.1812C64.6092 17.0396 64.7199 16.7961 64.7199 16.4508V16.3312C64.7199 15.6495 64.472 15.0917 63.9762 14.6578C63.4803 14.2151 62.7853 13.9937 61.891 13.9937C60.9967 13.9937 60.2663 14.2107 59.6996 14.6445C59.1329 15.0695 58.823 15.6052 58.7699 16.2516H56.0207C56.0827 14.9146 56.6449 13.8211 57.7074 12.9711C58.7699 12.1211 60.1777 11.6961 61.9309 11.6961C63.6574 11.6961 65.0165 12.1211 66.0082 12.9711C66.9999 13.8211 67.4957 14.9589 67.4957 16.3844V26H64.7332V24.0078H64.6801C64.3879 24.5745 63.923 25.088 63.2855 25.5484C62.6569 26 61.7405 26.2258 60.5363 26.2258ZM61.1074 23.968C62.347 23.968 63.259 23.6492 63.8434 23.0117C64.4366 22.3654 64.7332 21.6128 64.7332 20.7539V19.107C64.5473 19.2576 64.1267 19.3948 63.4715 19.5187C62.8163 19.6339 62.1168 19.7445 61.373 19.8508C60.6027 19.9659 59.9254 20.1828 59.341 20.5016C58.7566 20.8203 58.4645 21.3339 58.4645 22.0422C58.4645 22.6443 58.6991 23.118 59.1684 23.4633C59.6465 23.7997 60.2928 23.968 61.1074 23.968ZM76.6863 26.3188C75.3493 26.3188 74.1762 26.0089 73.1668 25.3891C72.1574 24.7693 71.3694 23.9104 70.8027 22.8125C70.2449 21.7146 69.966 20.4484 69.966 19.0141C69.966 17.562 70.2449 16.287 70.8027 15.1891C71.3694 14.0823 72.1574 13.219 73.1668 12.5992C74.1762 11.9706 75.3493 11.6562 76.6863 11.6562C78.0233 11.6562 79.1921 11.9706 80.1926 12.5992C81.202 13.219 81.9855 14.0823 82.5434 15.1891C83.11 16.287 83.3934 17.562 83.3934 19.0141C83.3934 20.4484 83.11 21.7146 82.5434 22.8125C81.9855 23.9104 81.202 24.7693 80.1926 25.3891C79.1921 26.0089 78.0233 26.3188 76.6863 26.3188ZM76.6863 23.9016C77.8905 23.9016 78.8379 23.4589 79.5285 22.5734C80.2191 21.688 80.5645 20.5016 80.5645 19.0141C80.5645 17.5089 80.2147 16.3091 79.5152 15.4148C78.8246 14.5206 77.8816 14.0734 76.6863 14.0734C75.491 14.0734 74.5436 14.5206 73.8441 15.4148C73.1535 16.3003 72.8082 17.5 72.8082 19.0141C72.8082 20.5104 73.1535 21.7013 73.8441 22.5867C74.5348 23.4633 75.4822 23.9016 76.6863 23.9016ZM88.6793 17.925V26H85.877V11.975H88.6262V14.0867C89.5824 12.493 90.9947 11.6961 92.8629 11.6961C93.828 11.6961 94.6913 11.9086 95.4527 12.3336C96.223 12.7497 96.8296 13.3695 97.2723 14.193C97.715 15.0164 97.9363 16.0391 97.9363 17.2609V26H95.134V17.6062C95.134 16.4818 94.8639 15.6362 94.3238 15.0695C93.7837 14.494 93.0311 14.2062 92.066 14.2062C91.1098 14.2062 90.304 14.5029 89.6488 15.0961C89.0025 15.6805 88.6793 16.6234 88.6793 17.925ZM105.374 26.2258C103.975 26.2258 102.815 25.8716 101.894 25.1633C100.973 24.4461 100.513 23.388 100.513 21.9891C100.513 20.9266 100.774 20.112 101.296 19.5453C101.828 18.9698 102.514 18.5581 103.355 18.3102C104.205 18.0622 105.104 17.8807 106.051 17.7656C106.928 17.6594 107.623 17.5708 108.136 17.5C108.65 17.4292 109.013 17.3229 109.225 17.1812C109.447 17.0396 109.557 16.7961 109.557 16.4508V16.3312C109.557 15.6495 109.31 15.0917 108.814 14.6578C108.318 14.2151 107.623 13.9937 106.729 13.9937C105.834 13.9937 105.104 14.2107 104.537 14.6445C103.97 15.0695 103.661 15.6052 103.607 16.2516H100.858C100.92 14.9146 101.482 13.8211 102.545 12.9711C103.607 12.1211 105.015 11.6961 106.768 11.6961C108.495 11.6961 109.854 12.1211 110.846 12.9711C111.837 13.8211 112.333 14.9589 112.333 16.3844V26H109.571V24.0078H109.518C109.225 24.5745 108.761 25.088 108.123 25.5484C107.494 26 106.578 26.2258 105.374 26.2258ZM105.945 23.968C107.185 23.968 108.096 23.6492 108.681 23.0117C109.274 22.3654 109.571 21.6128 109.571 20.7539V19.107C109.385 19.2576 108.964 19.3948 108.309 19.5187C107.654 19.6339 106.954 19.7445 106.211 19.8508C105.44 19.9659 104.763 20.1828 104.179 20.5016C103.594 20.8203 103.302 21.3339 103.302 22.0422C103.302 22.6443 103.537 23.118 104.006 23.4633C104.484 23.7997 105.13 23.968 105.945 23.968ZM120.886 26.2789C119.664 26.2789 118.598 25.9734 117.686 25.3625C116.774 24.7427 116.065 23.8883 115.561 22.7992C115.056 21.7013 114.804 20.4307 114.804 18.9875C114.804 17.5443 115.056 16.2781 115.561 15.1891C116.074 14.0911 116.787 13.2367 117.699 12.6258C118.611 12.006 119.669 11.6961 120.873 11.6961C121.785 11.6961 122.617 11.8865 123.37 12.2672C124.123 12.6479 124.725 13.2279 125.176 14.007H125.203V6.21094H128.005V26H125.256V23.8617H125.229C124.76 24.6763 124.145 25.2828 123.383 25.6812C122.631 26.0797 121.798 26.2789 120.886 26.2789ZM121.457 23.8617C122.653 23.8617 123.605 23.419 124.313 22.5336C125.03 21.6393 125.389 20.4573 125.389 18.9875C125.389 17.5089 125.03 16.3268 124.313 15.4414C123.605 14.5471 122.653 14.1 121.457 14.1C120.324 14.1 119.403 14.5206 118.695 15.3617C117.995 16.194 117.646 17.4026 117.646 18.9875C117.646 20.5724 117.995 21.781 118.695 22.6133C119.403 23.4456 120.324 23.8617 121.457 23.8617ZM133.968 6.21094V26H131.166V6.21094H133.968ZM143.132 26.3188C141.742 26.3188 140.547 26.0044 139.546 25.3758C138.555 24.7471 137.789 23.8839 137.249 22.7859C136.718 21.6792 136.452 20.4219 136.452 19.0141C136.452 17.5885 136.731 16.3224 137.289 15.2156C137.846 14.1089 138.617 13.2411 139.6 12.6125C140.582 11.975 141.711 11.6562 142.986 11.6562C144.314 11.6562 145.465 11.9661 146.439 12.5859C147.422 13.2057 148.184 14.069 148.724 15.1758C149.264 16.2737 149.534 17.5443 149.534 18.9875V19.7445H139.214C139.268 21.0107 139.631 22.0333 140.304 22.8125C140.985 23.5917 141.942 23.9812 143.172 23.9812C144.093 23.9812 144.85 23.7732 145.443 23.357C146.037 22.9409 146.431 22.4008 146.625 21.7367H149.321C149.153 22.6398 148.777 23.4367 148.193 24.1273C147.617 24.818 146.891 25.3581 146.014 25.7477C145.147 26.1284 144.186 26.3188 143.132 26.3188ZM139.241 17.6195H146.798C146.683 16.5039 146.289 15.6229 145.616 14.9766C144.943 14.3214 144.075 13.9937 143.013 13.9937C141.95 13.9937 141.083 14.3214 140.41 14.9766C139.746 15.6229 139.356 16.5039 139.241 17.6195Z" fill="#9FA1A0"/>
<defs>
<clipPath id="clip0_12819_5940">
<rect width="29.6" height="25.9" fill="white" transform="translate(0 3.05005)"/>
</clipPath>
</defs>
</svg>
