<svg width="24" height="24" viewBox="0 0 24 24" fill="none" xmlns="http://www.w3.org/2000/svg">
<g clip-path="url(#clip0_12819_6839)">
<path d="M19.9316 0.75H4.06675C2.24254 0.75 0.75 2.24254 0.75 4.06675V19.9333C0.75 21.7575 2.24254 23.25 4.06675 23.25H19.9333C21.7575 23.25 23.25 21.7575 23.25 19.9333V4.06675C23.2483 2.24254 21.7575 0.75 19.9316 0.75ZM19.7185 12.7591H17.0485V22.4192H13.0535V12.7591H11.0551V9.4291H13.0535V7.43076C13.0535 4.71434 14.1812 3.09826 17.3901 3.09826H20.0576V6.42745H18.3893C17.1422 6.42745 17.0593 6.89428 17.0593 7.76244L17.0485 9.4291H20.0709L19.7185 12.7591Z" fill="white"/>
</g>
<defs>
<clipPath id="clip0_12819_6839">
<rect width="24" height="24" fill="white"/>
</clipPath>
</defs>
</svg>
