<svg width="88" height="51" viewBox="0 0 88 51" fill="none" xmlns="http://www.w3.org/2000/svg">
<g clip-path="url(#clip0_12819_6547)">
<path fill-rule="evenodd" clip-rule="evenodd" d="M12.5038 35.4815C14.4696 38.1604 17.7542 40.4606 21.9426 42.0913C26.1308 43.7221 31.0346 44.61 36.0335 44.643C41.0325 44.6759 45.9025 43.8523 50.0273 42.2763C54.1523 40.7003 57.3468 38.4427 59.2073 35.789C61.0676 33.1354 61.5101 30.2047 60.479 27.3679C60.4515 27.2922 60.4229 27.2167 60.3934 27.1414C60.3726 27.0882 60.3511 27.035 60.3293 26.9818L68.7722 31.8559L70.1313 31.0713C73.6259 29.0539 75.9817 26.4698 76.9009 23.6457C77.8205 20.8217 77.2618 17.8844 75.296 15.2056C73.3304 12.5267 70.0458 10.2265 65.8574 8.59576C61.6692 6.96506 56.7656 6.077 51.7665 6.04413C46.7674 6.0112 41.8975 6.83484 37.7728 8.41078C33.6477 9.98682 30.4531 12.2444 28.5927 14.8981C26.7324 17.5517 26.2899 20.4823 27.3211 23.3192C27.368 23.4483 27.418 23.577 27.4707 23.7052L19.0278 18.8312L17.6687 19.6158C14.1742 21.6332 11.8183 24.2173 10.899 27.0414C9.97961 29.8654 10.5381 32.8026 12.5038 35.4815ZM34.3861 30.8359L19.1539 22.0424C16.908 23.6061 15.3797 25.4826 14.7214 27.5044C13.9435 29.894 14.4162 32.3794 16.0795 34.6461C17.7428 36.9129 20.5221 38.8592 24.0661 40.239C27.6099 41.6189 31.7593 42.3702 35.9891 42.3981C40.2191 42.4259 44.3397 41.729 47.8301 40.3955C51.3204 39.062 54.0235 37.1517 55.5977 34.9063C57.1086 32.7511 57.5143 30.38 56.7729 28.0703C56.1376 29.1296 55.0917 30.1209 53.6335 30.9627C48.3792 33.996 39.7617 33.9392 34.3861 30.8359ZM68.646 28.6447L53.4139 19.8512C48.0383 16.7478 39.4208 16.6911 34.1665 19.7244C32.7084 20.5662 31.6624 21.5575 31.0271 22.6168C30.2857 20.3071 30.6913 17.936 32.2023 15.7808C33.7765 13.5353 36.4796 11.6251 39.9699 10.2916C43.4602 8.95806 47.5809 8.26116 51.8109 8.28894C56.0408 8.31684 60.1901 9.06819 63.7339 10.4481C67.2779 11.8279 70.0572 13.7742 71.7205 16.041C73.3839 18.3077 73.8566 20.793 73.0785 23.1826C72.4203 25.2044 70.8919 27.081 68.646 28.6447ZM50.7152 29.4349C46.9968 31.4971 41.0456 31.4578 37.2448 29.3462L39.8158 27.8619C42.3169 26.9641 45.5469 26.9853 48.0844 27.9162L50.7152 29.4349ZM50.987 29.278C54.5591 27.1314 54.4911 23.6957 50.8334 21.5015L48.2624 22.9857C46.7069 24.4298 46.7438 26.2946 48.3568 27.7596L50.987 29.278ZM50.5552 21.3409C46.7544 19.2293 40.8031 19.1901 37.0847 21.2522L39.7149 22.7707C42.2525 23.7017 45.4826 23.7231 47.9839 22.8254L50.5552 21.3409ZM36.8129 21.4091C33.2409 23.5557 33.3089 26.9914 36.9666 29.1856L39.538 27.7012C41.093 26.2572 41.0562 24.3926 39.4436 22.9279L36.8129 21.4091Z" fill="white"/>
</g>
<defs>
<clipPath id="clip0_12819_6547">
<rect width="59.6356" height="41.7449" fill="white" transform="matrix(0.866044 -0.499967 0.866044 0.499967 0 29.8159)"/>
</clipPath>
</defs>
</svg>
