<svg width="402" height="24" viewBox="0 0 402 24" fill="none" xmlns="http://www.w3.org/2000/svg">
<g clip-path="url(#clip0_12819_7001)">
<path d="M11.9209 -0.0203006C11.968 -0.0199117 12.015 -0.0195227 12.0634 -0.0191219C13.0029 0.00214802 13.6472 0.436129 14.2969 1.07833C14.3312 1.11198 14.3655 1.14563 14.4008 1.1803C14.5832 1.35957 14.7649 1.53954 14.9455 1.72067C14.9752 1.75047 15.005 1.78028 15.0356 1.81098C15.1195 1.89969 15.1984 1.98965 15.2775 2.08249C15.5091 2.34759 15.7599 2.59363 16.0095 2.84162C16.0636 2.89554 16.1176 2.94948 16.1717 3.00342C16.2875 3.11886 16.4033 3.23423 16.5192 3.34955C16.7023 3.53179 16.8851 3.71423 17.068 3.89672C17.5877 4.41533 18.1078 4.93367 18.628 5.45181C18.9158 5.7385 19.2035 6.02537 19.491 6.31241C19.6729 6.494 19.855 6.67538 20.0373 6.8566C20.1502 6.96898 20.2629 7.08154 20.3756 7.19417C20.4281 7.24652 20.4806 7.29879 20.5332 7.35097C20.6047 7.42194 20.676 7.49318 20.7472 7.5645C20.7872 7.60437 20.8272 7.64424 20.8684 7.68532C20.9532 7.78146 20.9532 7.78146 20.9532 7.87521C20.897 7.88264 20.8409 7.89007 20.783 7.89773C19.2396 8.11392 18.3183 8.89202 17.2582 9.96676C17.1409 10.0855 17.0232 10.2039 16.9055 10.3222C16.6762 10.553 16.4473 10.7843 16.2188 11.0158C16.0348 10.9411 15.9104 10.8146 15.7728 10.6761C15.7472 10.6508 15.7217 10.6255 15.6954 10.5994C15.6098 10.5144 15.5246 10.4291 15.4393 10.3438C15.3781 10.2828 15.3168 10.2218 15.2554 10.1608C15.0888 9.99502 14.9225 9.82892 14.7562 9.66273C14.6522 9.55879 14.5482 9.45492 14.4441 9.35107C14.0805 8.98838 13.7172 8.62544 13.3541 8.26227C13.0164 7.92449 12.6781 7.58723 12.3396 7.25022C12.0486 6.96042 11.7579 6.67025 11.4675 6.37981C11.2943 6.20655 11.1209 6.03345 10.9472 5.8607C10.7835 5.69791 10.6203 5.53466 10.4573 5.37107C10.3978 5.31143 10.3381 5.25195 10.2782 5.19264C9.83924 4.75757 9.42037 4.31497 9.23733 3.70919C9.21059 3.62381 9.21059 3.62381 9.18331 3.53671C8.99435 2.82141 9.07285 2.07274 9.40725 1.41232C9.5661 1.14556 9.76571 0.922406 9.9844 0.703332C10.0109 0.676322 10.0373 0.649312 10.0646 0.621484C10.5642 0.15238 11.2525 -0.0275018 11.9209 -0.0203006Z" fill="white"/>
<path d="M7.78125 12.9844C7.96645 13.0593 8.09137 13.1875 8.22965 13.3268C8.26835 13.3652 8.26835 13.3652 8.30784 13.4044C8.39427 13.4904 8.48037 13.5767 8.56647 13.663C8.62837 13.7247 8.69029 13.7863 8.75222 13.848C8.92049 14.0156 9.08844 14.1836 9.25633 14.3516C9.39661 14.4919 9.53702 14.6321 9.67743 14.7723C10.0089 15.1032 10.3401 15.4344 10.6711 15.7657C11.0122 16.1071 11.3537 16.448 11.6955 16.7888C11.9891 17.0816 12.2824 17.3746 12.5756 17.6679C12.7505 17.8429 12.9256 18.0179 13.1009 18.1926C13.266 18.357 13.4307 18.5219 13.5952 18.6869C13.6554 18.7473 13.7158 18.8075 13.7762 18.8676C14.1727 19.2617 14.5299 19.6296 14.71 20.1709C14.7286 20.2258 14.7473 20.2808 14.7665 20.3373C14.9629 20.9655 14.9321 21.7084 14.6719 22.3125C14.6565 22.3524 14.6412 22.3924 14.6254 22.4335C14.3194 23.1427 13.6587 23.6138 12.9699 23.9052C12.2703 24.1447 11.4472 24.0473 10.7871 23.7523C10.1838 23.4514 9.7226 22.9013 9.25175 22.4297C9.1838 22.3618 9.11584 22.2939 9.04788 22.2261C8.86466 22.0431 8.68159 21.8599 8.49855 21.6767C8.30675 21.4848 8.11484 21.293 7.92294 21.1012C7.60126 20.7796 7.27967 20.4579 6.95815 20.1361C6.58598 19.7637 6.21365 19.3915 5.84123 19.0193C5.52127 18.6996 5.20141 18.3797 4.88162 18.0598C4.69068 17.8688 4.49971 17.6778 4.30866 17.4869C4.12949 17.3079 3.95044 17.1287 3.77147 16.9495C3.7056 16.8836 3.63969 16.8177 3.57373 16.7518C3.48415 16.6624 3.39471 16.5728 3.30532 16.4831C3.27882 16.4568 3.25233 16.4304 3.22504 16.4032C3.04688 16.2241 3.04688 16.2241 3.04688 16.1719C3.09624 16.1644 3.14561 16.157 3.19647 16.1494C4.81572 15.8931 5.73695 15.0448 6.8584 13.9131C6.94816 13.8228 7.038 13.7326 7.12784 13.6424C7.34589 13.4233 7.56368 13.2039 7.78125 12.9844Z" fill="white"/>
<path d="M7.82815 3.04688C7.83558 3.09624 7.84301 3.14561 7.85067 3.19647C8.10693 4.81572 8.95517 5.73695 10.0869 6.8584C10.1772 6.94816 10.2674 7.038 10.3577 7.12784C10.5767 7.34589 10.7961 7.56368 11.0156 7.78125C10.9407 7.96634 10.8127 8.09134 10.6735 8.22965C10.6479 8.25545 10.6224 8.28125 10.596 8.30784C10.5101 8.39427 10.424 8.48037 10.3378 8.56647C10.2762 8.62837 10.2146 8.69029 10.153 8.75222C9.98556 8.92049 9.81782 9.08845 9.64999 9.25633C9.54508 9.36131 9.44024 9.46636 9.33541 9.57143C8.96948 9.93823 8.60331 10.3048 8.23691 10.6711C7.89582 11.0121 7.55526 11.3537 7.21494 11.6955C6.92247 11.9892 6.62965 12.2825 6.33654 12.5756C6.16161 12.7505 5.98683 12.9255 5.81241 13.1009C5.64815 13.2661 5.48345 13.4308 5.3184 13.5952C5.25811 13.6554 5.19798 13.7157 5.13803 13.7762C4.52706 14.3926 3.85872 14.8626 2.95942 14.8772C2.499 14.8764 2.11549 14.8563 1.68752 14.6719C1.62761 14.6489 1.62761 14.6489 1.56649 14.6254C0.857301 14.3194 0.386241 13.6587 0.0948696 12.9699C-0.122109 12.3362 -0.0754925 11.5324 0.187521 10.9219C0.202869 10.8819 0.218217 10.842 0.23403 10.8008C0.503825 10.1756 1.14796 9.67336 1.62355 9.19853C1.69098 9.13103 1.75841 9.06353 1.82582 8.99601C2.00718 8.81444 2.18868 8.63302 2.37021 8.45164C2.56057 8.2614 2.75081 8.07105 2.94107 7.88072C3.2599 7.5618 3.57882 7.24299 3.89781 6.92422C4.26698 6.55531 4.63598 6.18622 5.0049 5.81705C5.32206 5.49968 5.63931 5.1824 5.95664 4.86519C6.14602 4.67588 6.33537 4.48654 6.52464 4.29712C6.70206 4.11956 6.87959 3.94212 7.05722 3.76477C7.12255 3.6995 7.18784 3.63419 7.25308 3.56884C7.34171 3.48009 7.43048 3.39148 7.51929 3.30291C7.54543 3.27666 7.57157 3.25042 7.5985 3.22337C7.77592 3.04688 7.77592 3.04688 7.82815 3.04688Z" fill="white"/>
<path d="M23.0145 9.75856C23.0458 9.78659 23.0771 9.81463 23.1094 9.84352C23.1387 9.86962 23.1681 9.89572 23.1984 9.92262C23.6439 10.3429 23.9624 10.9312 24.0083 11.5489C24.0328 12.5354 23.8704 13.252 23.1767 13.9916C22.9323 14.2482 22.6805 14.4977 22.4297 14.748C22.3618 14.816 22.2939 14.8839 22.2261 14.9519C22.0431 15.1351 21.8599 15.3182 21.6767 15.5012C21.4848 15.693 21.293 15.8849 21.1012 16.0768C20.7796 16.3985 20.4579 16.7201 20.1361 17.0416C19.7637 17.4138 19.3915 17.7861 19.0193 18.1585C18.6996 18.4785 18.3797 18.7984 18.0598 19.1181C17.8688 19.3091 17.6778 19.5001 17.4869 19.6911C17.3079 19.8703 17.1287 20.0493 16.9495 20.2283C16.8836 20.2942 16.8177 20.3601 16.7518 20.426C16.6624 20.5156 16.5728 20.6051 16.4831 20.6945C16.4568 20.7209 16.4304 20.7474 16.4032 20.7747C16.2241 20.9529 16.2241 20.9529 16.1719 20.9529C16.1644 20.9035 16.157 20.8542 16.1494 20.8033C15.8931 19.184 15.0448 18.2628 13.9131 17.1414C13.8228 17.0516 13.7326 16.9618 13.6424 16.8719C13.4233 16.6539 13.2039 16.4361 12.9844 16.2185C13.0593 16.0337 13.187 15.9087 13.3259 15.7704C13.3641 15.7318 13.3641 15.7318 13.4032 15.6923C13.4888 15.606 13.5748 15.52 13.6607 15.434C13.7222 15.3722 13.7837 15.3104 13.8451 15.2485C14.0121 15.0804 14.1795 14.9127 14.3469 14.745C14.4517 14.6401 14.5563 14.5351 14.661 14.4302C15.0264 14.0636 15.3921 13.6973 15.758 13.3312C16.0984 12.9906 16.4382 12.6495 16.7777 12.308C17.0696 12.0144 17.362 11.7214 17.6547 11.4286C17.8293 11.2539 18.0037 11.0791 18.1777 10.9038C18.3416 10.7386 18.5061 10.5741 18.671 10.4099C18.7312 10.3498 18.7911 10.2896 18.8508 10.2291C19.9522 9.11473 21.6954 8.65376 23.0145 9.75856Z" fill="white"/>
<path d="M12.3191 9.15086C12.4776 9.23927 12.586 9.33375 12.7143 9.46172C12.7485 9.49547 12.7485 9.49547 12.7833 9.52991C12.8577 9.60376 12.9317 9.67811 13.0056 9.75251C13.0575 9.80432 13.1094 9.8561 13.1614 9.90787C13.2699 10.0162 13.3781 10.1247 13.4862 10.2334C13.6245 10.3725 13.7635 10.511 13.9026 10.6493C14.0098 10.7561 14.1167 10.8631 14.2235 10.9703C14.2746 11.0215 14.3258 11.0726 14.3771 11.1235C14.4488 11.1949 14.52 11.2666 14.5912 11.3385C14.6318 11.3792 14.6723 11.4199 14.7141 11.4619C14.8826 11.6609 14.9164 11.8274 14.9233 12.0862C14.8791 12.3492 14.7211 12.5309 14.5382 12.7143C14.5157 12.737 14.4932 12.7598 14.47 12.7832C14.3962 12.8577 14.3218 12.9316 14.2474 13.0056C14.1956 13.0575 14.1438 13.1094 14.0921 13.1613C13.9838 13.2698 13.8753 13.3781 13.7665 13.4861C13.6274 13.6245 13.4889 13.7634 13.3506 13.9026C13.2439 14.0098 13.1368 14.1167 13.0297 14.2235C12.9785 14.2746 12.9274 14.3258 12.8764 14.3771C12.8051 14.4488 12.7333 14.52 12.6614 14.5911C12.6207 14.6317 12.58 14.6723 12.5381 14.7141C12.3391 14.8825 12.1726 14.9163 11.9138 14.9232C11.6508 14.879 11.4691 14.7211 11.2857 14.5382C11.2629 14.5157 11.2402 14.4932 11.2167 14.47C11.1423 14.3961 11.0683 14.3218 10.9944 14.2474C10.9425 14.1956 10.8906 14.1438 10.8386 14.092C10.7301 13.9837 10.6219 13.8752 10.5138 13.7665C10.3755 13.6273 10.2365 13.4889 10.0974 13.3505C9.99017 13.2438 9.88328 13.1368 9.77649 13.0296C9.72539 12.9784 9.67418 12.9273 9.62287 12.8764C9.55118 12.805 9.47995 12.7333 9.40883 12.6613C9.36825 12.6207 9.32767 12.58 9.28586 12.538C9.11741 12.339 9.08363 12.1725 9.07672 11.9137C9.12095 11.6507 9.27886 11.469 9.46177 11.2856C9.49553 11.2515 9.49553 11.2515 9.52996 11.2167C9.60382 11.1422 9.67817 11.0683 9.75256 10.9943C9.80437 10.9424 9.85615 10.8905 9.90792 10.8386C10.0162 10.7301 10.1247 10.6218 10.2335 10.5138C10.3726 10.3754 10.5111 10.2365 10.6494 10.0973C10.7561 9.99011 10.8632 9.88323 10.9703 9.77644C11.0215 9.72534 11.0726 9.67413 11.1236 9.62282C11.1949 9.55112 11.2667 9.4799 11.3386 9.40878C11.3793 9.3682 11.42 9.32762 11.4619 9.28581C11.7143 9.07216 12.0149 9.01872 12.3191 9.15086Z" fill="white"/>
</g>
<path d="M33.1562 18V6.35938H40.7266V7.60938H34.5625V11.4141H40.2734V12.6641H34.5625V16.75H40.7266V18H33.1562ZM47.0978 12.625V13.875H42.0041V12.625H47.0978ZM52.2113 18.1875C51.4508 18.1875 50.7816 18.0052 50.2034 17.6406C49.6305 17.2708 49.1826 16.763 48.8597 16.1172C48.542 15.4714 48.3831 14.7292 48.3831 13.8906C48.3831 13.0469 48.542 12.2995 48.8597 11.6484C49.1826 10.9974 49.6305 10.487 50.2034 10.1172C50.7816 9.7474 51.4508 9.5625 52.2113 9.5625C52.8363 9.5625 53.3961 9.6875 53.8909 9.9375C54.3857 10.1823 54.7894 10.5208 55.1019 10.9531C55.4196 11.3854 55.6149 11.8802 55.6878 12.4375H54.3441C54.2451 11.9531 54.0159 11.5547 53.6566 11.2422C53.3024 10.9245 52.8206 10.7656 52.2113 10.7656C51.4352 10.7656 50.8258 11.0495 50.3831 11.6172C49.9456 12.1849 49.7269 12.9427 49.7269 13.8906C49.7269 14.8281 49.9456 15.5781 50.3831 16.1406C50.8206 16.7031 51.43 16.9844 52.2113 16.9844C52.831 16.9844 53.305 16.8333 53.6331 16.5312C53.9613 16.224 54.1904 15.8177 54.3206 15.3125H55.6878C55.6149 15.8542 55.4196 16.3438 55.1019 16.7812C54.7894 17.2135 54.3831 17.5573 53.8831 17.8125C53.3883 18.0625 52.831 18.1875 52.2113 18.1875ZM60.4263 18.1875C59.6658 18.1875 58.9966 18.0052 58.4184 17.6406C57.8455 17.2708 57.3976 16.763 57.0747 16.1172C56.757 15.4714 56.5981 14.7292 56.5981 13.8906C56.5981 13.0469 56.757 12.2995 57.0747 11.6484C57.3976 10.9974 57.8455 10.487 58.4184 10.1172C58.9966 9.7474 59.6658 9.5625 60.4263 9.5625C61.1919 9.5625 61.8611 9.7474 62.4341 10.1172C63.007 10.487 63.4523 10.9974 63.77 11.6484C64.0929 12.2995 64.2544 13.0469 64.2544 13.8906C64.2544 14.7292 64.0929 15.4714 63.77 16.1172C63.4523 16.763 63.007 17.2708 62.4341 17.6406C61.8611 18.0052 61.1919 18.1875 60.4263 18.1875ZM60.4263 16.9844C61.2075 16.9844 61.8169 16.7031 62.2544 16.1406C62.6919 15.5729 62.9106 14.8229 62.9106 13.8906C62.9106 12.9479 62.6893 12.1927 62.2466 11.625C61.8091 11.0521 61.2023 10.7656 60.4263 10.7656C59.6502 10.7656 59.0408 11.0495 58.5981 11.6172C58.1606 12.1849 57.9419 12.9427 57.9419 13.8906C57.9419 14.8281 58.1606 15.5781 58.5981 16.1406C59.0356 16.7031 59.645 16.9844 60.4263 16.9844ZM65.6413 18V9.75H66.9381V11.0859C67.1985 10.6016 67.5449 10.2318 67.9772 9.97656C68.4095 9.72135 68.8782 9.59375 69.3834 9.59375C69.9459 9.59375 70.4381 9.73698 70.86 10.0234C71.2819 10.3099 71.5788 10.6615 71.7506 11.0781C71.9746 10.6562 72.3105 10.3047 72.7584 10.0234C73.2064 9.73698 73.7376 9.59375 74.3522 9.59375C74.8574 9.59375 75.3157 9.70312 75.7272 9.92188C76.1439 10.1406 76.4746 10.4714 76.7194 10.9141C76.9694 11.3568 77.0944 11.9167 77.0944 12.5938V18H75.7663V12.5938C75.7663 11.9531 75.5866 11.4974 75.2272 11.2266C74.8678 10.9505 74.4511 10.8125 73.9772 10.8125C73.373 10.8125 72.8965 10.9974 72.5475 11.3672C72.2038 11.7318 72.0319 12.1927 72.0319 12.75V18H70.7038V12.4531C70.7038 11.9583 70.5371 11.5625 70.2038 11.2656C69.8756 10.9635 69.4616 10.8125 68.9616 10.8125C68.6178 10.8125 68.2923 10.8932 67.985 11.0547C67.6829 11.2161 67.4381 11.4583 67.2506 11.7812C67.0631 12.099 66.9694 12.4948 66.9694 12.9688V18H65.6413ZM78.9031 18V9.75H80.2V11.0859C80.4604 10.6016 80.8068 10.2318 81.2391 9.97656C81.6714 9.72135 82.1401 9.59375 82.6453 9.59375C83.2078 9.59375 83.7 9.73698 84.1219 10.0234C84.5438 10.3099 84.8406 10.6615 85.0125 11.0781C85.2365 10.6562 85.5724 10.3047 86.0203 10.0234C86.4682 9.73698 86.9995 9.59375 87.6141 9.59375C88.1193 9.59375 88.5776 9.70312 88.9891 9.92188C89.4057 10.1406 89.7365 10.4714 89.9813 10.9141C90.2313 11.3568 90.3563 11.9167 90.3563 12.5938V18H89.0281V12.5938C89.0281 11.9531 88.8484 11.4974 88.4891 11.2266C88.1297 10.9505 87.713 10.8125 87.2391 10.8125C86.6349 10.8125 86.1583 10.9974 85.8094 11.3672C85.4656 11.7318 85.2938 12.1927 85.2938 12.75V18H83.9656V12.4531C83.9656 11.9583 83.799 11.5625 83.4656 11.2656C83.1375 10.9635 82.7234 10.8125 82.2234 10.8125C81.8797 10.8125 81.5542 10.8932 81.2469 11.0547C80.9448 11.2161 80.7 11.4583 80.5125 11.7812C80.325 12.099 80.2313 12.4948 80.2313 12.9688V18H78.9031ZM95.5713 18.1875C94.764 18.1875 94.0739 18.0026 93.5009 17.6328C92.9332 17.263 92.4983 16.7552 92.1963 16.1094C91.8942 15.4583 91.7431 14.7188 91.7431 13.8906C91.7431 13.0521 91.902 12.3073 92.2197 11.6562C92.5374 11.0052 92.9775 10.4948 93.54 10.125C94.1025 9.75 94.7483 9.5625 95.4775 9.5625C96.2431 9.5625 96.9072 9.74479 97.4697 10.1094C98.0322 10.474 98.4645 10.9818 98.7666 11.6328C99.0739 12.2839 99.2275 13.0365 99.2275 13.8906V14.2578H93.0556C93.0869 15.0651 93.3186 15.7214 93.7509 16.2266C94.1832 16.7318 94.79 16.9844 95.5713 16.9844C96.1598 16.9844 96.639 16.849 97.0088 16.5781C97.3838 16.3073 97.6338 15.9583 97.7588 15.5312H99.0869C98.9827 16.0573 98.7666 16.5208 98.4384 16.9219C98.1103 17.3177 97.6989 17.6276 97.2041 17.8516C96.7145 18.0755 96.1702 18.1875 95.5713 18.1875ZM93.0713 13.1172H97.8994C97.8265 12.3932 97.5739 11.8177 97.1416 11.3906C96.7093 10.9635 96.1546 10.75 95.4775 10.75C94.8004 10.75 94.2483 10.9635 93.8213 11.3906C93.3942 11.8177 93.1442 12.3932 93.0713 13.1172ZM100.583 18V9.75H101.849V11.0469H101.88C102.031 10.6198 102.271 10.276 102.599 10.0156C102.927 9.75521 103.349 9.625 103.864 9.625C103.984 9.625 104.094 9.63021 104.192 9.64062C104.297 9.65104 104.375 9.66146 104.427 9.67188V11C104.375 10.9844 104.273 10.9661 104.122 10.9453C103.976 10.9193 103.807 10.9062 103.614 10.9062C103.156 10.9062 102.758 11.0677 102.419 11.3906C102.081 11.7135 101.911 12.224 101.911 12.9219V18H100.583ZM108.829 18.1875C108.069 18.1875 107.4 18.0052 106.822 17.6406C106.249 17.2708 105.801 16.763 105.478 16.1172C105.16 15.4714 105.001 14.7292 105.001 13.8906C105.001 13.0469 105.16 12.2995 105.478 11.6484C105.801 10.9974 106.249 10.487 106.822 10.1172C107.4 9.7474 108.069 9.5625 108.829 9.5625C109.454 9.5625 110.014 9.6875 110.509 9.9375C111.004 10.1823 111.408 10.5208 111.72 10.9531C112.038 11.3854 112.233 11.8802 112.306 12.4375H110.962C110.863 11.9531 110.634 11.5547 110.275 11.2422C109.921 10.9245 109.439 10.7656 108.829 10.7656C108.053 10.7656 107.444 11.0495 107.001 11.6172C106.564 12.1849 106.345 12.9427 106.345 13.8906C106.345 14.8281 106.564 15.5781 107.001 16.1406C107.439 16.7031 108.048 16.9844 108.829 16.9844C109.449 16.9844 109.923 16.8333 110.251 16.5312C110.579 16.224 110.809 15.8177 110.939 15.3125H112.306C112.233 15.8542 112.038 16.3438 111.72 16.7812C111.408 17.2135 111.001 17.5573 110.501 17.8125C110.006 18.0625 109.449 18.1875 108.829 18.1875ZM117.044 18.1875C116.237 18.1875 115.547 18.0026 114.974 17.6328C114.406 17.263 113.971 16.7552 113.669 16.1094C113.367 15.4583 113.216 14.7188 113.216 13.8906C113.216 13.0521 113.375 12.3073 113.693 11.6562C114.011 11.0052 114.451 10.4948 115.013 10.125C115.576 9.75 116.221 9.5625 116.951 9.5625C117.716 9.5625 118.38 9.74479 118.943 10.1094C119.505 10.474 119.938 10.9818 120.24 11.6328C120.547 12.2839 120.701 13.0365 120.701 13.8906V14.2578H114.529C114.56 15.0651 114.792 15.7214 115.224 16.2266C115.656 16.7318 116.263 16.9844 117.044 16.9844C117.633 16.9844 118.112 16.849 118.482 16.5781C118.857 16.3073 119.107 15.9583 119.232 15.5312H120.56C120.456 16.0573 120.24 16.5208 119.912 16.9219C119.583 17.3177 119.172 17.6276 118.677 17.8516C118.188 18.0755 117.643 18.1875 117.044 18.1875ZM114.544 13.1172H119.372C119.3 12.3932 119.047 11.8177 118.615 11.3906C118.182 10.9635 117.628 10.75 116.951 10.75C116.274 10.75 115.721 10.9635 115.294 11.3906C114.867 11.8177 114.617 12.3932 114.544 13.1172Z" fill="white"/>
<defs>
<clipPath id="clip0_12819_7001">
<rect width="24" height="24" fill="white"/>
</clipPath>
</defs>
</svg>
